
                    <svg xmlns="http://www.w3.org/2000/svg" viewBox="0 0 800 450" class="w-100">
                        <style type="text/css">
                            .enrojecido { fill: #00ffff; opacity: 0.5}
                        </style>
                        <image width="1600" height="900" xlink:href="https://picsum.photos/id/411/1600/900?grayscale" transform="matrix(0.5 0 0 0.5 0 0)" />
                        <polygon class="enrojecido" points="372 216 372 150 371 150 371 137 369 137 369 131 368 131 368 128 367 128 367 125 365 125 365 124 364 124 364 122 363 122 363 116 362 116 362 108 361 108 361 106 360 86 359 106 359 108 358 108 358 116 357 116 357 122 356 122 356 124 355 124 355 125 353 125 353 128 352 128 352 131 351 131 351 137 349 137 349 150 348 150 348 216 345 216 345 243 375 243 375 216 "
                        />
                        <text transform="matrix(1 0 0 1 366.2178 78.1255)">Empire State Building</text>
                    </svg>
